HIERARCHY
ROOT pelvis
{
  OFFSET 0 100 0
  CHANNELS 6 Xposition Yposition Zposition Zrotation Xrotation Yrotation
  JOINT pelvis_right_femur
  {
    OFFSET -10.78128 -3.44521 -0.5502486
    CHANNELS 3 Zrotation Xrotation Yrotation
    JOINT right_femur_tibia
    {
      OFFSET -0.8047443 -44.0398 -0.1307829
      CHANNELS 3 Zrotation Xrotation Yrotation
      JOINT right_tibia_foot
      {
        OFFSET 3.006224 -47.83518 -5
        CHANNELS 3 Zrotation Xrotation Yrotation
        End Site
        {
          OFFSET 0 -5 15
        }
      }
    }
  }
  JOINT pelvis_left_femur
  {
    OFFSET 10.78128 -3.44521 -0.5502486
    CHANNELS 3 Zrotation Xrotation Yrotation
    JOINT left_femur_tibia
    {
      OFFSET 0.8047443 -44.0398 -0.1307829
      CHANNELS 3 Zrotation Xrotation Yrotation
      JOINT left_tibia_foot
      {
        OFFSET -4.370144 -48.10324 -4.275266
        CHANNELS 3 Zrotation Xrotation Yrotation
        End Site
        {
          OFFSET 0 -5 15
        }
      }
    }
  }
  JOINT pelvis_spine1
  {
    OFFSET 0 6.468898 -3.129235
    CHANNELS 3 Zrotation Xrotation Yrotation
    JOINT spine1
    {
      OFFSET 0 23.15396 4.99043
      CHANNELS 3 Zrotation Xrotation Yrotation
      JOINT spine2
      {
        OFFSET 0 20.79997 -5.064912
        CHANNELS 3 Zrotation Xrotation Yrotation
        JOINT neck
        {
          OFFSET 0 14.38658 9.616178
          CHANNELS 3 Zrotation Xrotation Yrotation
          End Site
          {
            OFFSET 0 20 0
          }
        }
      }
      JOINT right_manubrium
      {
        OFFSET -5.722621 16.35077 3.967754
        CHANNELS 3 Zrotation Xrotation Yrotation
        JOINT right_clavicle
        {
          OFFSET -13.16364 1.694482 -4.693211
          CHANNELS 3 Zrotation Xrotation Yrotation
          JOINT right_humerus
          {
            OFFSET -28.5034 -0.3100689 -2.792744
            CHANNELS 3 Zrotation Xrotation Yrotation
            JOINT right_radius
            {
              OFFSET -25.15693 0.02248979 -1.271978
              CHANNELS 3 Zrotation Xrotation Yrotation
              End Site
              {
                OFFSET -15 0 0
              }
            }
          }
        }
      }
      JOINT left_manubrium
      {
        OFFSET 5.722621 16.35077 3.967754
        CHANNELS 3 Zrotation Xrotation Yrotation
        JOINT left_clavicle
        {
          OFFSET 13.16364 1.694482 -4.693211
          CHANNELS 3 Zrotation Xrotation Yrotation
          JOINT left_humerus
          {
            OFFSET 29.39168 -1.063119 -2.237045
            CHANNELS 3 Zrotation Xrotation Yrotation
            JOINT left_radius
            {
              OFFSET 24.59957 -0.9528479 0.9047498
              CHANNELS 3 Zrotation Xrotation Yrotation
              End Site
              {
                OFFSET 15 -0 -0
              }
            }
          }
        }
      }
    }
  }
}
MOTION
Frames: 13
Frame Time: 0.0416666666667
0 103.5113 0 2.197202 -1.163923 0.2776304 1.21327 -10.09896 8.667144 -0 33.93042 -0 -5.255498 -17.86385 -2.236584 -8.058203 10.09975 -23.46686 -0 5.182008 -0 7.655181 -16.18836 26.53825 -4.354991 -5.050546 4.978037 2.032124 9.204958 -7.731661 0.8349995 22.80177 7.174471 3.25664 -23.10987 8.801765 6.363058 -19.7371 11.5739 86.32922 35.95446 -19.82399 -0 0 16.19901 -7.57483 8.250762 4.611789 5.527689 -19.50882 -1.691509 -94.72773 29.73838 22.83491 0 0 -16.11491 3.532119 17.89775 9.521013
0.337287 103.4759 1.415909 2.086377 -0.97903 0.4702721 1.40166 -11.05929 8.4385 -0 32.47143 -0 -5.273611 -17.28808 -2.013164 -7.974601 10.2488 -23.26979 -0 5.336584 -0 7.466863 -16.51891 26.2835 -4.324493 -4.865638 4.972387 2.135854 9.156573 -7.724814 0.8554779 22.68651 7.191805 3.29057 -23.25014 8.817683 6.324519 -19.6335 11.56719 86.35867 35.94837 -19.93937 -0 0 15.98829 -7.609011 8.299021 4.621547 5.652414 -19.61017 -1.685889 -94.51581 29.68048 22.49887 0 0 -16.62475 3.646787 17.79993 9.417786
0.6844039 103.3597 2.979608 1.946751 -0.7026131 0.6217892 1.623467 -12.34668 8.089207 -0 30.04713 -0 -5.290233 -16.43796 -1.612246 -7.879681 10.44808 -22.96321 -0 5.610613 -0 7.175313 -16.97667 25.88846 -4.29262 -4.621728 4.982815 2.284406 9.083722 -7.704693 0.884403 22.52432 7.214098 3.340111 -23.43833 8.834057 6.260599 -19.4723 11.55412 86.41367 35.93916 -20.11696 -0 0 15.6684 -7.658437 8.372006 4.632918 5.841306 -19.7605 -1.677931 -94.20166 29.59247 21.98916 0 0 -17.3684 3.811754 17.6615 9.261382
1.043687 103.1427 4.744371 1.794624 -0.3398637 0.7372196 1.845963 -13.81632 7.631267 -0 26.70601 -0 -5.309539 -15.36318 -1.037984 -7.785513 10.6843 -22.54186 -0 6.057433 -0 6.761759 -17.50738 25.33611 -4.257205 -4.346981 5.006797 2.463316 8.988339 -7.675845 0.9164461 22.33014 7.240943 3.400918 -23.65637 8.846925 6.170048 -19.25526 11.53009 86.50557 35.92695 -20.35397 -0 0 15.24558 -7.723087 8.471028 4.647759 6.076651 -19.95068 -1.671466 -93.80112 29.47434 21.33392 0 0 -18.28426 4.012082 17.48623 9.068428
1.414481 102.8229 6.766156 1.646166 0.1002816 0.8375621 2.040622 -15.27007 7.08535 -0 22.62469 -0 -5.340511 -14.14486 -0.3229325 -7.700025 10.94463 -21.99704 -0 6.768002 -0 6.191315 -18.02643 24.59531 -4.206724 -4.077981 5.030741 2.649365 8.873234 -7.6515 0.9422997 22.12635 7.273538 3.465689 -23.88157 8.852054 6.05274 -18.98618 11.48736 86.65212 35.91223 -20.6451 -0 0 14.72948 -7.80427 8.599193 4.671268 6.324872 -20.16523 -1.674073 -93.33874 29.32735 20.58414 0 0 -19.27038 4.223903 17.27628 8.870297
1.793468 102.417 9.101968 1.512788 0.6038689 0.9567537 2.189485 -16.50978 6.475806 -0 18.04205 -0 -5.393254 -12.87345 0.4878807 -7.626917 11.21053 -21.32312 -0 7.842136 -0 5.430343 -18.43744 23.63897 -4.125864 -3.848601 5.039759 2.819203 8.742316 -7.645261 0.9523651 21.93507 7.312764 3.52642 -24.09167 8.844877 5.910668 -18.67058 11.42019 86.86833 35.89551 -20.98183 -0 0 14.133 -7.90436 8.759515 4.709733 6.54874 -20.38604 -1.69399 -92.84275 29.15354 19.79882 0 0 -20.2185 4.422606 17.03353 8.700384
2.176611 101.9571 11.803 1.393923 1.144179 1.127686 2.293212 -17.37304 5.833309 -0 13.24778 -0 -5.480715 -11.63999 1.342194 -7.562261 11.43982 -20.5259 -0 9.383254 -0 4.46124 -18.6327 22.46371 -3.997206 -3.678733 5.028209 2.957301 8.602454 -7.661877 0.9396423 21.77123 7.356579 3.575644 -24.26815 8.819094 5.750801 -18.31657 11.33222 87.15511 35.87747 -21.34824 -0 0 13.47512 -8.028127 8.953426 4.769579 6.714875 -20.59203 -1.737424 -92.34652 28.95441 19.04013 0 0 -21.03718 4.588817 16.76024 8.584461
2.560139 101.4917 14.90648 1.274834 1.671676 1.363549 2.37358 -17.68624 5.204703 -0 8.646795 -0 -5.623459 -10.55897 2.170757 -7.489826 11.54199 -19.62162 -0 11.55742 -0 3.275233 -18.45285 21.08912 -3.794073 -3.576527 5.002745 3.054348 8.465821 -7.694742 0.8978658 21.64455 7.398558 3.604505 -24.3911 8.763075 5.587544 -17.93477 11.24021 87.49756 35.86039 -21.71646 -0 0 12.78311 -8.186226 9.182402 4.859891 6.785008 -20.75188 -1.810003 -91.89793 28.73019 18.38902 0 0 -21.63176 4.704146 16.45761 8.546181
2.940331 101.089 18.43082 1.135338 2.120063 1.64591 2.46487 -17.25943 4.647387 -0 4.713328 -0 -5.843271 -9.762665 2.894609 -7.383579 11.38841 -18.63215 -0 14.57832 -0 1.878696 -17.70329 19.55964 -3.484913 -3.54259 4.97948 3.10433 8.348513 -7.72907 0.8211381 21.56251 7.429134 3.60321 -24.43838 8.661167 5.43977 -17.53804 11.16932 87.86967 35.84838 -22.04906 -0 0 12.09031 -8.394495 9.448261 4.992389 6.717474 -20.82734 -1.916769 -91.55349 28.48102 17.93877 0 0 -21.90426 4.750482 16.12571 8.608087
3.313835 100.8275 22.37527 0.9710079 2.430734 1.931322 2.586673 -15.97125 4.19893 -0 1.7566 -0 -6.143205 -9.344798 3.462653 -7.224077 10.85654 -17.58012 -0 18.56378 -0 0.3241449 -16.27093 17.95722 -3.060733 -3.567524 4.981192 3.104358 8.265396 -7.746218 0.7085908 21.53103 7.438775 3.566394 -24.39327 8.501753 5.321701 -17.14338 11.14057 88.23826 35.8456 -22.30563 -0 0 11.4312 -8.668871 9.750203 5.177327 6.49167 -20.79439 -2.056945 -91.34958 28.20806 17.75023 0 0 -21.80397 4.719089 15.76602 8.777916
3.679699 100.7734 26.71481 0.8130401 2.55429 2.169594 2.714878 -13.79148 3.857689 0 -0.2270013 0 -6.49361 -9.340657 3.875763 -7.014375 9.808698 -16.48674 -0 23.45667 -0 -1.27137 -14.20581 16.41104 -2.561704 -3.624256 5.046666 3.052362 8.231171 -7.718271 0.5688297 21.55924 7.416693 3.496469 -24.24369 8.279333 5.239191 -16.78033 11.16722 88.55205 35.85677 -22.42985 -0 0 10.84925 -9.029702 10.08317 5.42504 6.124895 -20.65628 -2.218272 -91.28773 27.91167 17.82921 0 0 -21.36107 4.615367 15.38296 9.038219
4.042073 100.9563 31.3881 0.7323741 2.435454 2.321801 2.775547 -10.73409 3.590742 0 -1.524417 0 -6.831643 -9.750797 4.183171 -6.780809 8.040416 -15.3728 -0 29.05215 -0 -2.742093 -11.71674 15.08474 -2.082413 -3.664097 5.239932 2.943832 8.264735 -7.600738 0.4204238 21.66419 7.347579 3.40278 -23.97519 7.990736 5.192272 -16.49755 11.25932 88.72941 35.8889 -22.3324 -0 0 10.408 -9.509975 10.43844 5.750925 5.669404 -20.44055 -2.376251 -91.34127 27.5894 18.13848 0 0 -20.6784 4.455635 14.9835 9.347847
4.409584 101.3631 36.29717 0.8044546 2.030935 2.371033 2.687218 -6.84932 3.363796 0 -2.521653 0 -7.086061 -10.55187 4.451842 -6.54889 5.356968 -14.25796 -0 35.05519 -0 -3.94339 -9.078816 14.1137 -1.729522 -3.63658 5.622934 2.774092 8.381735 -7.349862 0.2844966 21.862 7.217229 3.297439 -23.57644 7.636382 5.176371 -16.3466 11.42179 88.68492 35.94749 -21.92067 -0 0 10.17365 -10.14456 10.80491 6.171023 5.189021 -20.18336 -2.504219 -91.47257 27.23813 18.62295 0 0 -19.88208 4.259214 14.57543 9.659916
